<svg width="84" height="84" viewBox="0 0 84 84" fill="none" xmlns="http://www.w3.org/2000/svg">
<path d="M69.9615 4.36449e-07H14.0385C12.1951 -0.000459264 10.3697 0.362228 8.66646 1.06735C6.96325 1.77247 5.41564 2.80621 4.112 4.10953C2.80836 5.41285 1.77422 6.96022 1.06868 8.66325C0.363138 10.3663 -5.73192e-08 12.1916 0 14.035V69.958C-1.15666e-07 73.6816 1.47894 77.2527 4.11157 79.886C6.7442 82.5192 10.3149 83.9991 14.0385 84H69.9615C73.6851 83.9991 77.2558 82.5192 79.8884 79.886C82.5211 77.2527 84 73.6816 84 69.958V14.035C84 12.1916 83.6368 10.3663 82.9313 8.66325C82.2258 6.96022 81.1916 5.41285 79.888 4.10953C78.5844 2.80621 77.0367 1.77247 75.3335 1.06735C73.6303 0.362228 71.8049 -0.000459264 69.9615 4.36449e-07ZM68.726 64.2985C68.726 65.4731 68.2596 66.5996 67.4294 67.4305C66.5992 68.2613 65.4731 68.7286 64.2985 68.7295H19.7085C19.1268 68.7295 18.5508 68.6149 18.0134 68.3921C17.476 68.1694 16.9877 67.843 16.5765 67.4315C16.1654 67.02 15.8393 66.5315 15.617 65.9939C15.3947 65.4563 15.2805 64.8802 15.281 64.2985V19.705C15.2805 19.1233 15.3947 18.5472 15.617 18.0096C15.8393 17.472 16.1654 16.9835 16.5765 16.572C16.9877 16.1605 17.476 15.8341 18.0134 15.6114C18.5508 15.3886 19.1268 15.274 19.7085 15.274H64.2985C65.4731 15.2749 66.5992 15.7422 67.4294 16.573C68.2596 17.4039 68.726 18.5304 68.726 19.705V64.2985Z" fill="#121212"/>
<path d="M33.075 53.396C32.7404 53.396 32.4091 53.3299 32.1002 53.2016C31.7912 53.0732 31.5106 52.8851 31.2745 52.6481C31.0384 52.411 30.8515 52.1296 30.7244 51.8201C30.5973 51.5106 30.5326 51.1791 30.534 50.8445V33.0435C30.5321 32.7086 30.5965 32.3767 30.7234 32.0668C30.8503 31.7569 31.0371 31.4751 31.2733 31.2377C31.5094 31.0003 31.7902 30.8118 32.0994 30.6833C32.4086 30.5547 32.7401 30.4885 33.075 30.4885H50.925C51.2597 30.489 51.5911 30.5555 51.9001 30.6842C52.2091 30.8129 52.4896 31.0014 52.7257 31.2387C52.9617 31.4761 53.1486 31.7577 53.2757 32.0674C53.4027 32.3771 53.4674 32.7088 53.466 33.0435V50.8445C53.4669 51.1789 53.4019 51.5103 53.2747 51.8196C53.1474 52.1289 52.9604 52.4101 52.7244 52.647C52.4884 52.884 52.208 53.0721 51.8993 53.2006C51.5905 53.3292 51.2594 53.3956 50.925 53.396H33.075Z" fill="#121212"/>
</svg>
