<svg width="84" height="84" viewBox="0 0 84 84" fill="none" xmlns="http://www.w3.org/2000/svg">
<path d="M0 16C0 7.16344 7.16344 0 16 0H68C76.8366 0 84 7.16344 84 16V68C84 76.8366 76.8366 84 68 84H16C7.16344 84 0 76.8366 0 68V16Z" fill="#FFEC1A"/>
<path d="M21.77 36.8201V33.4601H18.41V36.8201H15.05V40.1801H18.41V50.2601H21.77V40.1801H28.49V36.8201H21.77Z" fill="black"/>
<path d="M35.21 40.1801H45.29V36.8201H35.21V30.1001H31.85V50.2601H35.21V40.1801Z" fill="black"/>
<path d="M35.21 50.2601V53.6201H45.29V50.2601H35.21Z" fill="black"/>
<path d="M45.29 50.2601H48.65V40.1801L45.29 40.1801V50.2601Z" fill="black"/>
<path d="M55.37 40.1801H52.01V50.2601H55.37V40.1801Z" fill="black"/>
<path d="M55.37 50.2601V53.6201H65.45V50.2601H55.37Z" fill="black"/>
<path d="M65.45 36.8201H55.37V40.1801L65.45 40.1801V50.2601H68.81V30.1001H65.45V36.8201Z" fill="black"/>
<path d="M28.49 53.6201V50.2601H21.77L21.77 53.6201H28.49Z" fill="black"/>
</svg>
