<svg width="84" height="84" viewBox="0 0 84 84" fill="none" xmlns="http://www.w3.org/2000/svg">
<path fill-rule="evenodd" clip-rule="evenodd" d="M29.254 0C20.85 0 16.648 0 12.126 1.4C7.1636 3.2 3.2416 7.12 1.4408 12.08C0 16.64 0 20.84 0 29.28V54.72C0 63.2 0 67.36 1.4008 71.88C3.2016 76.84 7.1236 80.76 12.086 82.56C16.648 84 20.85 84 29.254 84H54.706C63.15 84 67.352 84 71.874 82.56C76.8364 80.76 80.7584 76.84 82.5592 71.88C84 67.32 84 63.12 84 54.72V29.32C84 20.88 84 16.68 82.5592 12.16C80.7984 7.2 76.8768 3.28 71.9144 1.48C67.392 0 63.23 0 54.746 0H29.254Z" fill="#00D533"/>
<path d="M45.4616 37.92C54.306 39.8 58.3476 43.48 58.3476 49.68C58.3476 57.44 52.0244 63.16 42.14 63.8L41.1796 68.4C41.0996 68.84 40.6992 69.16 40.2192 69.16H32.6156C31.9752 69.16 31.5352 68.56 31.6552 67.96L32.8556 62.84C27.9732 61.44 24.0112 58.72 21.7304 55.4C21.4504 54.96 21.5304 54.4 21.9304 54.08L27.2128 49.96C27.6532 49.6 28.2932 49.72 28.6136 50.16C31.4148 54.08 35.7368 56.4 40.9396 56.4C45.622 56.4 49.1436 54.12 49.1436 50.84C49.1436 48.32 47.3828 47.16 41.42 45.92C31.2552 43.72 27.2132 39.96 27.2132 33.76C27.2132 26.56 33.256 21.16 42.3804 20.44L43.3808 15.68C43.4608 15.24 43.8612 14.92 44.3412 14.92H51.8248C52.4252 14.92 52.9052 15.48 52.7852 16.08L51.6248 21.4C55.5468 22.6 58.748 24.76 60.7492 27.44C61.0692 27.84 60.9892 28.44 60.5892 28.76L55.7468 32.72C55.3064 33.08 54.7064 33 54.386 32.56C51.9048 29.52 48.0628 27.8 43.8608 27.8C39.1784 27.8 36.2572 29.84 36.2572 32.72C36.1772 35.12 38.4584 36.4 45.4616 37.92Z" fill="white"/>
</svg>
